<?xml version="1.0" standalone="no"?>
<!DOCTYPE svg PUBLIC "-//W3C//DTD SVG 20010904//EN"
 "http://www.w3.org/TR/2001/REC-SVG-20010904/DTD/svg10.dtd">
<svg version="1.0" xmlns="http://www.w3.org/2000/svg"
 width="512.000000pt" height="512.000000pt" viewBox="0 0 512.000000 512.000000"
 preserveAspectRatio="xMidYMid meet">
<metadata>
Created by potrace 1.14, written by Peter Selinger 2001-2017
</metadata>
<g transform="translate(0.000000,512.000000) scale(0.100000,-0.100000)"
fill="#000000" stroke="none">
<path d="M2995 4533 c-15 -48 -36 -115 -47 -148 -10 -33 -28 -94 -39 -135 -53
-199 -58 -211 -92 -225 -18 -7 -54 -16 -82 -19 -27 -4 -90 -18 -140 -31 -49
-13 -164 -40 -255 -60 -91 -19 -217 -48 -280 -65 -63 -16 -142 -34 -175 -39
-33 -6 -71 -13 -85 -16 -95 -18 -96 -18 -142 27 -106 105 -146 158 -328 431
-154 231 -195 276 -221 250 -9 -9 -3 -23 27 -59 123 -147 170 -210 229 -309
36 -61 110 -166 165 -234 62 -77 100 -133 100 -148 0 -12 -18 -69 -41 -125
-23 -57 -92 -254 -154 -438 -62 -184 -133 -389 -159 -455 -26 -66 -70 -183
-97 -259 -27 -77 -50 -140 -51 -141 -2 -2 -39 -6 -83 -10 -44 -4 -93 -8 -110
-10 -67 -8 -213 -21 -317 -29 -75 -6 -188 -16 -223 -21 -16 -2 -64 -7 -105
-11 -85 -7 -113 -18 -108 -42 3 -14 15 -17 58 -17 53 0 174 11 215 19 11 2 56
7 100 11 44 3 94 8 110 10 17 2 62 7 100 10 201 17 286 25 341 31 l51 6 54
-87 c175 -281 272 -409 490 -646 13 -14 55 -60 93 -102 110 -123 117 -130 145
-162 15 -16 63 -75 105 -129 l78 -100 -6 -79 c-3 -44 -8 -82 -10 -86 -2 -3 -7
-26 -10 -51 -4 -25 -19 -107 -34 -183 -23 -112 -26 -142 -16 -155 11 -15 14
-15 28 -2 8 8 17 29 20 45 3 17 15 89 26 160 12 72 32 176 46 231 19 78 22
108 14 128 -7 21 -3 64 21 186 l31 160 72 21 c39 12 136 46 216 76 80 30 179
66 220 80 41 14 136 49 210 78 209 81 582 206 606 203 23 -3 207 -174 486
-451 93 -92 176 -167 184 -167 8 0 14 10 14 23 0 31 -21 53 -395 402 -175 164
-235 224 -235 239 0 7 13 52 29 101 16 50 47 151 70 225 23 74 62 187 87 251
l45 116 92 13 c51 7 99 14 107 15 36 4 145 19 150 20 3 1 37 5 75 10 39 5 72
9 75 10 3 0 32 5 65 9 32 4 66 9 75 11 8 1 40 6 70 9 30 4 66 8 80 10 14 2 48
7 75 11 99 13 121 16 174 25 29 6 57 8 61 5 4 -2 15 2 25 9 27 19 13 48 -21
42 -14 -3 -65 -8 -112 -11 -75 -6 -185 -22 -258 -39 -12 -2 -45 -7 -75 -11
-30 -3 -65 -8 -79 -10 -26 -4 -67 -10 -155 -20 -27 -4 -61 -8 -75 -10 -14 -3
-45 -7 -70 -10 -25 -3 -58 -7 -75 -9 -16 -3 -52 -7 -80 -11 -27 -4 -67 -10
-87 -15 -72 -15 -83 -8 -278 190 -247 250 -318 326 -425 450 -49 58 -94 110
-100 116 -5 6 -30 35 -55 64 -153 181 -186 217 -212 233 -15 11 -28 20 -28 20
3 21 74 227 84 242 11 16 33 25 88 34 40 8 82 15 93 17 27 6 114 17 220 29 66
8 99 21 89 36 -5 9 -38 8 -154 -6 -115 -14 -137 -17 -160 -20 -14 -2 -53 -6
-87 -10 l-61 -7 44 154 c25 84 61 198 81 253 41 114 46 158 21 163 -13 2 -22
-16 -43 -85z m-212 -650 c-19 -54 -42 -117 -50 -141 -8 -24 -25 -49 -37 -57
-26 -17 -434 -142 -568 -175 -80 -19 -98 -27 -107 -47 -6 -14 -9 -29 -6 -34 4
-5 2 -9 -3 -9 -6 0 -56 50 -113 112 -57 61 -121 130 -142 152 -45 48 -52 44
120 80 65 14 166 39 225 55 59 16 172 41 250 55 79 15 211 44 293 65 83 22
155 40 162 40 8 1 -1 -35 -24 -96z m-837 -479 c24 -28 47 -65 50 -82 8 -38
-10 -151 -42 -266 -14 -49 -27 -101 -29 -115 -2 -14 -25 -123 -50 -241 -25
-118 -45 -226 -45 -240 0 -56 -4 -57 -280 -86 -30 -3 -116 -13 -190 -23 -153
-19 -170 -18 -170 11 0 11 36 116 81 232 113 296 161 429 213 596 79 253 154
472 172 502 7 11 185 -167 290 -288z m915 189 c30 -32 74 -82 99 -112 25 -30
61 -73 80 -96 19 -23 50 -60 68 -83 19 -22 41 -50 50 -60 10 -11 37 -44 62
-73 24 -30 148 -159 275 -287 126 -128 228 -236 225 -240 -3 -3 -18 -7 -35 -9
-16 -1 -47 -5 -68 -8 -142 -21 -223 -16 -247 14 -3 4 -53 43 -111 88 -172 133
-467 406 -533 496 -16 20 -39 40 -53 43 -16 4 -22 12 -19 23 3 9 17 61 31 116
38 144 56 208 67 228 17 33 52 20 109 -40z m-167 15 c-4 -6 -8 -21 -10 -32 -1
-12 -16 -68 -32 -126 -16 -58 -33 -124 -36 -147 -8 -47 -31 -72 -72 -79 -16
-2 -40 -9 -54 -14 -68 -24 -146 -41 -168 -35 -22 5 -99 58 -161 109 -87 73
-101 89 -101 117 0 35 24 52 105 73 33 9 119 34 190 57 227 72 280 87 318 88
19 1 26 -3 21 -11z m-564 -358 c3 -3 28 -23 55 -45 89 -70 97 -90 76 -201 -11
-59 -22 -128 -26 -169 -1 -16 -6 -55 -9 -85 -4 -30 -9 -82 -12 -115 -10 -123
-15 -180 -17 -181 -1 -1 -27 -5 -57 -9 -103 -13 -115 -14 -189 -25 -41 -6 -75
-9 -77 -7 -10 10 39 268 96 500 42 177 46 194 60 277 9 53 18 101 19 108 1 4
73 -39 81 -48z m440 -164 c-13 -53 -25 -98 -29 -100 -10 -6 -182 125 -176 134
3 4 46 18 97 30 51 13 100 26 108 31 8 4 16 6 18 4 2 -2 -6 -47 -18 -99z m120
94 c5 0 38 -28 73 -62 141 -137 255 -245 307 -290 30 -25 66 -56 80 -68 14
-12 44 -38 68 -58 82 -67 124 -109 116 -115 -5 -3 -42 -8 -83 -11 -41 -4 -84
-9 -95 -11 -12 -2 -54 -7 -95 -10 l-73 -5 -147 142 c-80 79 -170 165 -199 191
-60 56 -61 63 -32 185 24 100 36 126 57 118 8 -3 19 -6 23 -6z m-268 -170 c35
-28 71 -57 81 -65 9 -8 17 -28 17 -44 0 -36 -88 -403 -99 -414 -11 -11 -151
-38 -161 -32 -4 2 -6 28 -4 57 8 144 15 235 19 258 2 14 10 75 19 135 16 116
24 168 25 173 2 6 44 -21 103 -68z m278 -240 c63 -59 139 -130 169 -157 30
-28 51 -55 48 -60 -4 -6 -30 -13 -59 -16 -29 -3 -126 -15 -216 -27 -89 -12
-166 -20 -170 -18 -9 3 77 364 92 386 4 7 11 10 15 7 3 -4 58 -55 121 -115z
m1060 -190 c0 -7 -20 -73 -44 -148 -25 -76 -68 -211 -97 -302 -29 -91 -55
-168 -58 -172 -10 -12 -189 175 -204 213 -13 32 -11 45 29 189 24 85 47 165
53 177 10 22 27 27 146 39 33 3 61 7 62 8 2 2 28 4 58 5 36 1 55 -2 55 -9z
m-380 -27 c0 -5 -16 -66 -36 -138 -20 -71 -38 -140 -41 -152 -6 -26 -16 -29
-35 -9 -7 7 -66 68 -132 135 -99 102 -114 121 -95 122 13 0 33 2 44 4 11 2 38
6 60 9 95 13 133 19 175 26 25 4 48 8 53 9 4 0 7 -2 7 -6z m-394 -76 c61 -47
257 -258 248 -267 -28 -28 -614 -212 -749 -235 -16 -3 -56 -12 -87 -19 -32 -7
-58 -10 -58 -7 0 4 6 30 14 57 8 27 33 128 56 226 23 97 47 183 53 192 7 9 21
18 32 20 27 5 144 20 250 32 28 3 68 9 90 13 75 16 119 12 151 -12z m-597
-134 c-41 -189 -82 -358 -88 -365 -15 -18 -391 359 -391 392 0 5 8 8 18 8 51
-3 252 18 352 36 41 8 87 14 101 15 l27 1 -19 -87z m-398 -131 c81 -81 169
-167 195 -190 27 -24 61 -59 75 -78 31 -40 37 0 -60 -435 -39 -174 -71 -325
-71 -335 0 -28 -18 -52 -27 -38 -7 11 -112 128 -172 193 -13 14 -49 55 -80 90
-31 36 -65 74 -76 87 -207 230 -440 539 -539 717 l-38 67 39 2 c21 0 43 2 48
3 6 1 44 5 85 9 41 5 82 10 90 11 8 1 46 6 85 10 38 4 72 8 75 10 3 1 32 6 65
10 33 3 61 8 63 9 1 2 24 3 50 4 l47 2 146 -148z m1347 -100 c130 -135 172
-181 172 -190 0 -5 -8 -12 -17 -15 -10 -3 -63 -22 -118 -42 -55 -21 -174 -63
-265 -95 -91 -32 -273 -98 -405 -148 -258 -97 -369 -135 -426 -146 -30 -5 -36
-3 -36 11 -1 26 76 363 88 385 5 10 13 18 17 19 10 1 25 5 132 32 52 14 112
28 132 31 71 11 123 25 228 61 285 98 426 145 438 145 8 0 35 -22 60 -48z"/>
</g>
</svg>
